<?xml version="1.0" encoding="UTF-8" standalone="no"?>
<svg
   width="40"
   height="40"
   viewBox="0 3.3 32 40"
   version="1.1"
   id="SVGRoot"
   sodipodi:docname="CHC-E-disabled-symbolic.svg"
   inkscape:version="1.1.2 (0a00cf5339, 2022-02-04)"
   xmlns:inkscape="http://www.inkscape.org/namespaces/inkscape"
   xmlns:sodipodi="http://sodipodi.sourceforge.net/DTD/sodipodi-0.dtd"
   xmlns="http://www.w3.org/2000/svg"
   xmlns:svg="http://www.w3.org/2000/svg"
   xmlns:rdf="http://www.w3.org/1999/02/22-rdf-syntax-ns#"
   xmlns:cc="http://creativecommons.org/ns#"
   xmlns:dc="http://purl.org/dc/elements/1.1/">
  <sodipodi:namedview
     id="namedview19"
     pagecolor="#ffffff"
     bordercolor="#666666"
     borderopacity="1.0"
     inkscape:pageshadow="2"
     inkscape:pageopacity="0.0"
     inkscape:pagecheckerboard="0"
     showgrid="false"
     inkscape:zoom="21.1"
     inkscape:cx="19.976303"
     inkscape:cy="20.023697"
     inkscape:window-width="1920"
     inkscape:window-height="1016"
     inkscape:window-x="0"
     inkscape:window-y="0"
     inkscape:window-maximized="1"
     inkscape:current-layer="layer1"
     inkscape:lockguides="false" />
  <defs
     id="defs815" />
  <metadata
     id="metadata818">
    <rdf:RDF>
      <cc:Work
         rdf:about="">
        <dc:format>image/svg+xml</dc:format>
        <dc:type
           rdf:resource="http://purl.org/dc/dcmitype/StillImage" />
      </cc:Work>
    </rdf:RDF>
  </metadata>
  <g
     transform="matrix(1.2762461,0,0,1,-4.4025165,8)"
     id="layer1">
    <g
       id="g1525"
       style="color:#000000;fill:#808080"
       transform="matrix(1.955699,0,0,2.0665527,0.35269897,-1.5639887)">
      <path
         id="path1521"
         overflow="visible"
         font-weight="400"
         style="font-weight:400;line-height:normal;font-family:sans-serif;font-variant-ligatures:normal;font-variant-position:normal;font-variant-caps:normal;font-variant-numeric:normal;font-variant-alternates:normal;font-feature-settings:normal;text-indent:0;text-align:start;text-decoration:none;text-decoration-line:none;text-decoration-style:solid;text-decoration-color:#000000;text-transform:none;text-orientation:mixed;white-space:normal;shape-padding:0;overflow:visible;isolation:auto;mix-blend-mode:normal;marker:none"
         d="M 3.994,1 C 2.736,1.015 1.815,0.97 1.063,1.385 A 1.88,1.88 0 0 0 0.225,2.383 C 0.06,2.822 0,3.343 0,4 v 6 c 0,0.658 0.06,1.179 0.225,1.617 0.164,0.439 0.461,0.79 0.838,0.998 0.752,0.416 1.673,0.37 2.931,0.385 h 8.012 c 1.258,-0.014 2.179,0.03 2.932,-0.385 a 1.88,1.88 0 0 0 0.838,-0.998 C 15.94,11.179 16,10.657 16,10 V 4 C 16,3.342 15.94,2.822 15.775,2.383 A 1.88,1.88 0 0 0 14.938,1.385 C 14.185,0.969 13.264,1.015 12.006,1 H 3.998 Z M 4,2 h 8 c 1.259,0.015 2.087,0.06 2.453,0.262 0.184,0.101 0.29,0.213 0.387,0.472 C 14.937,2.994 15,3.408 15,4 v 6 c 0,0.592 -0.063,1.006 -0.16,1.266 -0.098,0.26 -0.203,0.371 -0.387,0.472 C 14.087,11.94 13.259,11.985 12,12 H 4 C 2.742,11.985 1.91,11.94 1.545,11.738 1.362,11.638 1.258,11.526 1.16,11.266 1.063,11.006 1,10.592 1,10 V 4 C 1,3.408 1.063,2.994 1.16,2.734 1.258,2.474 1.362,2.363 1.545,2.262 1.91,2.06 2.74,2.015 4,2 Z" />
      <path
         id="path1523"
         overflow="visible"
         style="overflow:visible;marker:none"
         d="m 6,12 h 4 v 1.5 C 10,15 10.5,15 11.5,15 H 12 v 1 H 4 v -1 h 0.5 c 1,0 1.5,0 1.5,-1.5 z" />
    </g>
    <rect
       style="opacity:1;fill:#808080;stroke-width:1.22792"
       id="rect2606"
       width="32.451019"
       height="4.0445538"
       x="-5.475709"
       y="18.005592"
       transform="matrix(0.83667723,-0.54769629,0.34568665,0.93835001,0,0)" />
    <rect
       style="fill:#808080;stroke-width:1.22774"
       id="rect2606-3"
       width="32.417397"
       height="4.0475173"
       x="3.7319641"
       y="0.21808887"
       transform="matrix(0.83913802,0.54391854,-0.34269552,0.93944653,0,0)" />
  </g>
</svg>
