<?xml version="1.0" encoding="UTF-8" standalone="no"?>
<svg
   xmlns:dc="http://purl.org/dc/elements/1.1/"
   xmlns:cc="http://creativecommons.org/ns#"
   xmlns:rdf="http://www.w3.org/1999/02/22-rdf-syntax-ns#"
   xmlns:svg="http://www.w3.org/2000/svg"
   xmlns="http://www.w3.org/2000/svg"
   id="svg6714"
   version="1.1"
   width="40"
   height="32">
  <metadata
     id="metadata6720">
    <rdf:RDF>
      <cc:Work
         rdf:about="">
        <dc:format>image/svg+xml</dc:format>
        <dc:type
           rdf:resource="http://purl.org/dc/dcmitype/StillImage" />
        <dc:title></dc:title>
      </cc:Work>
    </rdf:RDF>
  </metadata>
  <defs
     id="defs6718" />
  <path
     id="path6712"
     overflow="visible"
     font-weight="400"
     style="color:#000000;font-weight:400;line-height:normal;font-family:sans-serif;font-variant-ligatures:normal;font-variant-position:normal;font-variant-caps:normal;font-variant-numeric:normal;font-variant-alternates:normal;font-feature-settings:normal;text-indent:0;text-align:start;text-decoration:none;text-decoration-line:none;text-decoration-style:solid;text-decoration-color:#000000;text-transform:none;text-orientation:mixed;white-space:normal;shape-padding:0;overflow:visible;isolation:auto;mix-blend-mode:normal;fill:#808080;stroke-width:2.62527013;marker:none"
     d="m 20.321963,0.04759823 c -4.210706,0 -8.421412,0.4832788 -12.3719978,1.42440097 L 7.3907054,1.6034166 3.8465589,13.151236 c -0.604781,1.964908 -1.2030592,3.991289 -1.2128135,6.077018 -0.00975,2.087849 0.5820205,4.207493 1.9931759,6.123651 a 17.73699,11.562656 0 0 0 6.3957217,4.731045 17.376071,11.327376 0 0 0 18.59539,0 17.720731,11.552058 0 0 0 6.389217,-4.731045 c 1.411155,-1.916158 2.002929,-4.035802 1.993176,-6.12577 -0.0099,-2.08361 -0.601529,-4.109991 -1.206309,-6.074899 L 33.243465,1.6034166 32.684206,1.4719992 A 36.156798,23.570437 0 0 0 20.321963,0.04759823 Z M 18.891298,2.2138741 v 6.3122993 h 3.25151 V 2.2244722 c 2.828814,0.1314184 5.618612,0.5362696 8.320616,1.1106939 l 3.14096,10.2336399 c 0.601528,1.954311 1.138029,3.836555 1.144531,5.663687 0.0099,1.822895 -0.510488,3.62671 -1.671277,5.199487 a 14.534253,9.4748074 0 0 1 -5.212171,3.861991 14.153825,9.2268089 0 0 1 -7.543504,1.42864 14.176587,9.241647 0 0 1 -7.553258,-1.42864 A 14.534253,9.4748074 0 0 1 7.5565324,24.43198 C 6.395743,22.859203 5.8755014,21.055388 5.885256,19.232493 5.8950089,17.405361 6.4347613,15.523117 7.0362906,13.568806 L 10.17725,3.3351661 c 2.828814,-0.5998594 5.755173,-1.01319 8.714048,-1.1234122 z" />
  <path
     d="m 22.950431,9.3252215 a 2.4257426,4.2079206 0 0 1 -2.386129,4.2385735 2.4257426,4.2079206 0 0 1 -2.46452,-4.1013761 2.4257426,4.2079206 0 0 1 2.34233,-4.3114628 2.4257426,4.2079206 0 0 1 2.506148,4.0247535"
     id="path10427"
     style="opacity:1;fill:#808080;stroke-width:1.85499609" />
  <path
     style="fill:#e95420;stroke-width:3.73655033"
     id="path10802"
     d="m 20.495818,-0.03835866 c 0,0 -9.489947,10.79498366 -9.492508,10.79250466 l 0.0026,0.0025 4.278279,-0.0019 c 5.224534,-8.0869374 5.224534,-8.0869374 10.404949,10e-4 l 4.285326,-6.07e-4 z" />
</svg>
