<?xml version="1.0" encoding="UTF-8" standalone="no"?>
<svg
   xmlns:dc="http://purl.org/dc/elements/1.1/"
   xmlns:cc="http://creativecommons.org/ns#"
   xmlns:rdf="http://www.w3.org/1999/02/22-rdf-syntax-ns#"
   xmlns:svg="http://www.w3.org/2000/svg"
   xmlns="http://www.w3.org/2000/svg"
   height="32"
   width="40"
   version="1.1"
   id="svg6714">
  <metadata
     id="metadata6720">
    <rdf:RDF>
      <cc:Work
         rdf:about="">
        <dc:format>image/svg+xml</dc:format>
        <dc:type
           rdf:resource="http://purl.org/dc/dcmitype/StillImage" />
        <dc:title></dc:title>
      </cc:Work>
    </rdf:RDF>
  </metadata>
  <defs
     id="defs6718" />
  <path
     d="m 20.393892,3.9306931 c -4.227829,0 -8.455657,0.4242534 -12.4223081,1.2504313 L 7.4100499,5.2964911 3.8514912,15.433914 c -0.6072403,1.724924 -1.2079514,3.503812 -1.2177453,5.3348 -0.00979,1.832849 0.5843872,3.693609 2.0012811,5.375737 a 17.809117,10.150448 0 0 0 6.42173,4.153217 17.44673,9.9439034 0 0 0 18.671007,0 17.792792,10.141144 0 0 0 6.415199,-4.153217 c 1.416893,-1.682128 2.011074,-3.542888 2.001281,-5.377597 -0.0099,-1.829128 -0.603975,-3.608016 -1.211215,-5.33294 L 33.367939,5.2964911 32.806406,5.1811244 A 36.303828,20.691655 0 0 0 20.393892,3.9306931 Z m -1.436483,1.9016971 v 5.5413448 h 3.264732 V 5.8416939 c 2.840318,0.1153676 5.64146,0.4707722 8.354452,0.975039 l 3.153732,8.9837511 c 0.603975,1.715621 1.142657,3.367976 1.149186,4.971951 0.0099,1.600255 -0.512564,3.183761 -1.678073,4.564446 a 14.593356,8.317599 0 0 1 -5.233367,3.390306 14.211381,8.0998899 0 0 1 -7.574179,1.254152 14.234236,8.1129157 0 0 1 -7.583973,-1.254152 14.593356,8.317599 0 0 1 -5.2333678,-3.390306 C 6.4110415,23.956196 5.8886844,22.37269 5.8984786,20.772435 5.9082681,19.16846 6.4502185,17.516105 7.0541939,15.800484 L 10.207926,6.8167329 C 13.048243,6.2901375 15.986502,5.9272892 18.957409,5.830529 Z"
     style="color:#000000;font-weight:400;line-height:normal;font-family:sans-serif;font-variant-ligatures:normal;font-variant-position:normal;font-variant-caps:normal;font-variant-numeric:normal;font-variant-alternates:normal;font-feature-settings:normal;text-indent:0;text-align:start;text-decoration:none;text-decoration-line:none;text-decoration-style:solid;text-decoration-color:#000000;text-transform:none;text-orientation:mixed;white-space:normal;shape-padding:0;overflow:visible;isolation:auto;mix-blend-mode:normal;fill:#808080;stroke-width:2.46472812;marker:none"
     font-weight="400"
     overflow="visible"
     id="path6712" />
  <path
     style="opacity:1;fill:#999999;stroke-width:1.85499609"
     id="path10427"
     d="m 22.950431,9.3252215 a 2.4257426,4.2079206 0 0 1 -2.386129,4.2385735 2.4257426,4.2079206 0 0 1 -2.46452,-4.1013761 2.4257426,4.2079206 0 0 1 2.34233,-4.3114628 2.4257426,4.2079206 0 0 1 2.506148,4.0247535" />
  <path
     d="m 20.495818,18.677438 c 0,0 -9.489947,-10.7949836 -9.492508,-10.7925046 l 0.0026,-0.0025 4.278279,0.0019 c 5.224534,8.0869376 5.224534,8.0869376 10.404949,-0.001 l 4.285326,6.07e-4 z"
     id="path10802"
     style="fill:#ff6600;stroke-width:3.73655033" />
</svg>
