<?xml version="1.0" encoding="UTF-8" standalone="no"?>
<!-- Created with Inkscape (http://www.inkscape.org/) -->

<svg
   xmlns:dc="http://purl.org/dc/elements/1.1/"
   xmlns:cc="http://creativecommons.org/ns#"
   xmlns:rdf="http://www.w3.org/1999/02/22-rdf-syntax-ns#"
   xmlns:svg="http://www.w3.org/2000/svg"
   xmlns="http://www.w3.org/2000/svg"
   xmlns:sodipodi="http://sodipodi.sourceforge.net/DTD/sodipodi-0.dtd"
   xmlns:inkscape="http://www.inkscape.org/namespaces/inkscape"
   width="32px"
   height="32px"
   viewBox="0 0 32 32"
   version="1.1"
   id="SVGRoot"
   inkscape:version="0.92.5 (2060ec1f9f, 2020-04-08)"
   sodipodi:docname="TopRight.svg">
  <defs
     id="defs815" />
  <sodipodi:namedview
     id="base"
     pagecolor="#ffffff"
     bordercolor="#666666"
     borderopacity="1.0"
     inkscape:pageopacity="0.0"
     inkscape:pageshadow="2"
     inkscape:zoom="32"
     inkscape:cx="16"
     inkscape:cy="17.790112"
     inkscape:document-units="px"
     inkscape:current-layer="layer1"
     showgrid="false"
     inkscape:window-width="1920"
     inkscape:window-height="1016"
     inkscape:window-x="1280"
     inkscape:window-y="27"
     inkscape:window-maximized="1"
     inkscape:grid-bbox="true" />
  <metadata
     id="metadata818">
    <rdf:RDF>
      <cc:Work
         rdf:about="">
        <dc:format>image/svg+xml</dc:format>
        <dc:type
           rdf:resource="http://purl.org/dc/dcmitype/StillImage" />
        <dc:title></dc:title>
      </cc:Work>
    </rdf:RDF>
  </metadata>
  <g
     inkscape:label="Vrstva 1"
     inkscape:groupmode="layer"
     id="layer1">
    <path
       style="opacity:1;fill:#cccccc;stroke-width:0.90319538"
       id="path1371"
       sodipodi:type="arc"
       sodipodi:cx="-29.833323"
       sodipodi:cy="2.4403048"
       sodipodi:rx="10.111136"
       sodipodi:ry="10.013089"
       sodipodi:start="6.2823525"
       sodipodi:end="1.5704763"
       d="m -19.72219,2.4319658 a 10.111136,10.013089 0 0 1 -2.957359,7.0845798 10.111136,10.013089 0 0 1 -7.150538,2.9368474 l -0.0032,-10.0130882 z"
       transform="scale(-1,1)" />
    <g
       id="g1525"
       style="color:#000000;fill:#808080"
       transform="matrix(1.955699,0,0,2.0665527,0.35269897,-1.5639887)">
      <path
         id="path1521"
         overflow="visible"
         font-weight="400"
         style="font-weight:400;line-height:normal;font-family:sans-serif;font-variant-ligatures:normal;font-variant-position:normal;font-variant-caps:normal;font-variant-numeric:normal;font-variant-alternates:normal;font-feature-settings:normal;text-indent:0;text-align:start;text-decoration:none;text-decoration-line:none;text-decoration-style:solid;text-decoration-color:#000000;text-transform:none;text-orientation:mixed;white-space:normal;shape-padding:0;overflow:visible;isolation:auto;mix-blend-mode:normal;marker:none"
         d="M 3.994,1 C 2.736,1.015 1.815,0.97 1.063,1.385 A 1.88,1.88 0 0 0 0.225,2.383 C 0.06,2.822 0,3.343 0,4 v 6 c 0,0.658 0.06,1.179 0.225,1.617 0.164,0.439 0.461,0.79 0.838,0.998 0.752,0.416 1.673,0.37 2.931,0.385 h 8.012 c 1.258,-0.014 2.179,0.03 2.932,-0.385 a 1.88,1.88 0 0 0 0.838,-0.998 C 15.94,11.179 16,10.657 16,10 V 4 C 16,3.342 15.94,2.822 15.775,2.383 A 1.88,1.88 0 0 0 14.938,1.385 C 14.185,0.969 13.264,1.015 12.006,1 H 3.998 Z M 4,2 h 8 c 1.259,0.015 2.087,0.06 2.453,0.262 0.184,0.101 0.29,0.213 0.387,0.472 C 14.937,2.994 15,3.408 15,4 v 6 c 0,0.592 -0.063,1.006 -0.16,1.266 -0.098,0.26 -0.203,0.371 -0.387,0.472 C 14.087,11.94 13.259,11.985 12,12 H 4 C 2.742,11.985 1.91,11.94 1.545,11.738 1.362,11.638 1.258,11.526 1.16,11.266 1.063,11.006 1,10.592 1,10 V 4 C 1,3.408 1.063,2.994 1.16,2.734 1.258,2.474 1.362,2.363 1.545,2.262 1.91,2.06 2.74,2.015 4,2 Z"
         inkscape:connector-curvature="0" />
      <path
         id="path1523"
         overflow="visible"
         style="overflow:visible;marker:none"
         d="m 6,12 h 4 v 1.5 C 10,15 10.5,15 11.5,15 H 12 v 1 H 4 v -1 h 0.5 c 1,0 1.5,0 1.5,-1.5 z"
         inkscape:connector-curvature="0" />
    </g>
  </g>
</svg>
