<?xml version="1.0" encoding="UTF-8" standalone="no"?>
<svg
   xmlns:dc="http://purl.org/dc/elements/1.1/"
   xmlns:cc="http://creativecommons.org/ns#"
   xmlns:rdf="http://www.w3.org/1999/02/22-rdf-syntax-ns#"
   xmlns:svg="http://www.w3.org/2000/svg"
   xmlns="http://www.w3.org/2000/svg"
   id="svg6714"
   version="1.1"
   width="40"
   height="32">
  <metadata
     id="metadata6720">
    <rdf:RDF>
      <cc:Work
         rdf:about="">
        <dc:format>image/svg+xml</dc:format>
        <dc:type
           rdf:resource="http://purl.org/dc/dcmitype/StillImage" />
        <dc:title></dc:title>
      </cc:Work>
    </rdf:RDF>
  </metadata>
  <defs
     id="defs6718" />
  <path
     id="path6712"
     overflow="visible"
     font-weight="400"
     style="color:#000000;font-weight:400;line-height:normal;font-family:sans-serif;font-variant-ligatures:normal;font-variant-position:normal;font-variant-caps:normal;font-variant-numeric:normal;font-variant-alternates:normal;font-feature-settings:normal;text-indent:0;text-align:start;text-decoration:none;text-decoration-line:none;text-decoration-style:solid;text-decoration-color:#000000;text-transform:none;text-orientation:mixed;white-space:normal;shape-padding:0;overflow:visible;isolation:auto;mix-blend-mode:normal;fill:#808080;stroke-width:2.62527323;marker:none"
     d="m 20.322004,0.04759823 c -4.210716,0 -8.421431,0.4832788 -12.3720264,1.42440097 L 7.3907165,1.6034166 3.8465617,13.151236 c -0.6047824,1.964908 -1.203062,3.991289 -1.2128163,6.077018 -0.00975,2.087849 0.5820218,4.207493 1.9931806,6.123651 a 17.737031,11.562656 0 0 0 6.395737,4.731045 17.376111,11.327376 0 0 0 18.595433,0 17.720773,11.552058 0 0 0 6.389232,-4.731045 c 1.411158,-1.916158 2.002934,-4.035802 1.993181,-6.12577 -0.0099,-2.08361 -0.601531,-4.109991 -1.206313,-6.074899 L 33.243536,1.6034166 32.684276,1.4719992 A 36.156882,23.570437 0 0 0 20.322004,0.04759823 Z M 18.891336,2.2138741 v 6.3122993 h 3.251517 V 2.2244722 c 2.828821,0.1314184 5.618625,0.5362696 8.320636,1.1106939 l 3.140967,10.2336399 c 0.60153,1.954311 1.138032,3.836555 1.144534,5.663687 0.0099,1.822895 -0.510489,3.62671 -1.671281,5.199487 a 14.534287,9.4748074 0 0 1 -5.212184,3.861991 14.153858,9.2268089 0 0 1 -7.543521,1.42864 14.17662,9.241647 0 0 1 -7.553275,-1.42864 A 14.534287,9.4748074 0 0 1 7.5565438,24.43198 C 6.3957517,22.859203 5.875509,21.055388 5.8852635,19.232493 5.8950134,17.405361 6.4347702,15.523117 7.0363009,13.568806 L 10.177268,3.3351661 c 2.82882,-0.5998594 5.755186,-1.01319 8.714068,-1.1234122 z" />
  <path
     d="M 24.455342,7.1185702 A 3.8118811,3.5742574 0 0 1 20.705711,10.718865 3.8118811,3.5742574 0 0 1 16.832894,7.2351082 3.8118811,3.5742574 0 0 1 20.513699,3.5729003 3.8118811,3.5742574 0 0 1 24.45193,6.9915732"
     id="path10427"
     style="opacity:1;fill:#0073e5;stroke-width:2.14313483" />
</svg>
