<?xml version="1.0" encoding="UTF-8" standalone="no"?>
<svg
   xmlns:dc="http://purl.org/dc/elements/1.1/"
   xmlns:cc="http://creativecommons.org/ns#"
   xmlns:rdf="http://www.w3.org/1999/02/22-rdf-syntax-ns#"
   xmlns:svg="http://www.w3.org/2000/svg"
   xmlns="http://www.w3.org/2000/svg"
   height="32"
   width="40"
   version="1.1"
   id="svg6714">
  <metadata
     id="metadata6720">
    <rdf:RDF>
      <cc:Work
         rdf:about="">
        <dc:format>image/svg+xml</dc:format>
        <dc:type
           rdf:resource="http://purl.org/dc/dcmitype/StillImage" />
        <dc:title></dc:title>
      </cc:Work>
    </rdf:RDF>
  </metadata>
  <defs
     id="defs6718" />
  <path
     d="m 20.322004,0.03820404 c -4.210716,0 -8.421431,0.4834216 -12.3720264,1.42482186 L 7.3907165,1.5944821 3.8465617,13.145714 c -0.6047824,1.965489 -1.203062,3.992468 -1.2128163,6.078813 -0.00975,2.088466 0.5820218,4.208736 1.9931806,6.125461 a 17.737031,11.566073 0 0 0 6.395737,4.732442 17.376111,11.330723 0 0 0 18.595433,0 17.720773,11.555471 0 0 0 6.389232,-4.732442 c 1.411158,-1.916725 2.002934,-4.036995 1.993181,-6.12758 -0.0099,-2.084226 -0.601531,-4.111205 -1.206313,-6.076694 L 33.243536,1.5944821 32.684276,1.4630259 A 36.156882,23.577402 0 0 0 20.322004,0.03820404 Z M 18.891336,2.2051199 v 6.3141645 h 3.251517 V 2.2157212 c 2.828821,0.1314573 5.618625,0.5364281 8.320636,1.1110221 l 3.140967,10.2366637 c 0.60153,1.954888 1.138032,3.837688 1.144534,5.665361 0.0099,1.823433 -0.510489,3.627782 -1.671281,5.201023 a 14.534287,9.4776069 0 0 1 -5.212184,3.863132 14.153858,9.2295353 0 0 1 -7.543521,1.429062 14.17662,9.2443777 0 0 1 -7.553275,-1.429062 14.534287,9.4776069 0 0 1 -5.2121852,-3.863132 C 6.3957517,22.85655 5.875509,21.052201 5.8852635,19.228768 5.8950134,17.401095 6.4347702,15.518295 7.0363009,13.563407 L 10.177268,3.3267433 c 2.82882,-0.6000366 5.755186,-1.0134893 8.714068,-1.1237441 z"
     style="color:#000000;font-weight:400;line-height:normal;font-family:sans-serif;font-variant-ligatures:normal;font-variant-position:normal;font-variant-caps:normal;font-variant-numeric:normal;font-variant-alternates:normal;font-feature-settings:normal;text-indent:0;text-align:start;text-decoration:none;text-decoration-line:none;text-decoration-style:solid;text-decoration-color:#000000;text-transform:none;text-orientation:mixed;white-space:normal;shape-padding:0;overflow:visible;isolation:auto;mix-blend-mode:normal;fill:#808080;stroke-width:2.62566113;marker:none"
     font-weight="400"
     overflow="visible"
     id="path6712" />
  <path
     style="opacity:1;fill:#787859;stroke-width:2.14313483"
     id="path10427"
     d="M 30.552279,6.8621199 A 3.8118811,3.5742574 0 0 1 26.802648,10.462414 3.8118811,3.5742574 0 0 1 22.929831,6.9786569 3.8118811,3.5742574 0 0 1 26.610635,3.3164493 3.8118811,3.5742574 0 0 1 30.548867,6.7351224" />
</svg>
