<svg xmlns="http://www.w3.org/2000/svg" width="40" height="32" ><path d="M20.322.048c-4.211 0-8.421.483-12.372 1.424l-.559.131-3.544 11.548c-.605 1.965-1.203 3.991-1.213 6.077s.582 4.207 1.993 6.124a17.737 11.563 0 0 0 6.396 4.731 17.376 11.327 0 0 0 18.595 0 17.721 11.552 0 0 0 6.389-4.731c1.411-1.916 2.003-4.036 1.993-6.126-.01-2.084-.602-4.11-1.206-6.075L33.244 1.603l-.559-.131A36.157 23.57 0 0 0 20.322.048zm-1.431 2.166v6.312h3.252V2.224c2.829.131 5.619.536 8.321 1.111l3.141 10.234c.602 1.954 1.138 3.837 1.145 5.664s-.51 3.627-1.671 5.199a14.534 9.475 0 0 1-5.212 3.862 14.154 9.227 0 0 1-7.544 1.429 14.177 9.242 0 0 1-7.553-1.429 14.534 9.475 0 0 1-5.212-3.862c-1.161-1.573-1.681-3.377-1.671-5.199s.55-3.709 1.151-5.664l3.141-10.234c2.829-.6 5.755-1.013 8.714-1.123z" fill="gray"/><path d="M24.455 7.119a3.812 3.574 0 0 1-3.75 3.6 3.812 3.574 0 0 1-3.873-3.484 3.812 3.574 0 0 1 3.681-3.662 3.812 3.574 0 0 1 3.938 3.419" fill="#da3450"/></svg>