<svg xmlns="http://www.w3.org/2000/svg" viewBox="0 0 32 32" height="32" width="40" ><g transform="matrix(1.276 0 0 1 -4.402516 0)"><ellipse transform="matrix(.698 -.715691 .71971 .694 0 0)" ry="2.738" rx="5.656" cy="7.246" cx="-.481" fill="#da3450"/><g fill="gray"><path d="M8.165.503c-2.461.031-4.262-.062-5.733.796A3.84 3.84 0 0 0 .793 3.362c-.323.907-.44 1.984-.44 3.342v12.402c0 1.36.117 2.437.44 3.342s.902 1.633 1.639 2.063c1.471.86 3.272.765 5.733.796h15.671c2.461-.029 4.262.062 5.735-.796a3.84 3.84 0 0 0 1.639-2.063c.321-.905.438-1.984.438-3.342V6.704c0-1.36-.117-2.435-.44-3.342a3.84 3.84 0 0 0-1.637-2.063c-1.473-.86-3.274-.765-5.735-.796H8.173zm.012 2.067h15.648c2.463.031 4.082.124 4.798.542.36.209.567.44.757.976s.313 1.393.313 2.617v12.402c0 1.224-.123 2.079-.313 2.617s-.397.767-.757.976c-.716.418-2.335.511-4.798.542H8.177c-2.461-.031-4.088-.124-4.802-.542-.358-.207-.561-.438-.753-.976s-.313-1.393-.313-2.617V6.704c0-1.224.123-2.079.313-2.617s.395-.767.753-.976c.714-.418 2.337-.511 4.802-.542z"/><path d="M12.089 23.24h7.824v3.101c0 3.101.978 3.101 2.934 3.101h.978v2.067H8.177v-2.067h.978c1.956 0 2.934 0 2.934-3.101z"/></g></g></svg>